<svg width="267" height="52" viewBox="0 0 267 52" fill="none" xmlns="http://www.w3.org/2000/svg">
<g clip-path="url(#clip0_1547_91804)">
<path fill-rule="evenodd" clip-rule="evenodd" d="M178.223 24.1889C184.993 24.1889 190.091 28.7336 190.091 38.7332H169.031C169.285 46.2019 173.524 49.6401 178.776 49.6401C182.716 49.6401 185.746 47.5143 186.756 44.034H189.635C188.374 48.8357 184.331 51.9593 178.725 51.9593C171.607 51.9593 166.252 47.0638 166.252 38.0741C166.252 29.0844 171.453 24.1889 178.223 24.1889ZM178.22 26.4113C173.322 26.4113 169.584 29.8886 169.082 36.4562H187.258C186.907 29.7375 183.118 26.4113 178.22 26.4113Z" fill="white"/>
<path fill-rule="evenodd" clip-rule="evenodd" d="M222.821 24.1889C228.629 24.189 232.566 27.4697 232.566 32.8247V51.2063H230.344L229.945 46.8643C228.324 49.5857 225.348 51.9593 220.652 51.9593C215.551 51.9592 211.863 49.1864 211.863 44.5389C211.863 39.8914 214.59 37.318 221.962 36.1025L229.842 34.7902V32.5164C229.842 28.7307 227.166 26.4084 222.673 26.4083C218.482 26.4083 215.802 28.5733 215.449 31.7572H212.621L212.618 31.7605C213.021 27.2702 217.012 24.1889 222.821 24.1889ZM222.769 38.171C216.504 39.2323 214.687 41.2007 214.687 44.3364C214.687 47.8681 217.414 49.6339 221.354 49.6339C225.545 49.6339 229.836 46.456 229.836 41.8568L229.839 41.863V36.9615L222.769 38.171Z" fill="white"/>
<path d="M17.8807 33.9315C19.9097 33.9315 21.3855 34.4182 21.7907 34.5392V39.084C21.6183 38.9963 20.2423 38.1798 18.1952 38.1798C15.4195 38.1799 13.5025 40.109 13.5024 42.7063C13.5024 45.3037 15.3347 47.2331 18.1952 47.2332C20.209 47.2332 21.6092 46.4377 21.7907 46.3349V50.8918C21.2585 51.043 19.7948 51.4966 17.8807 51.4966C13.0699 51.4965 8.85487 48.1795 8.85483 42.7096C8.85483 37.6448 12.6738 33.9315 17.8807 33.9315Z" fill="white"/>
<path d="M62.5662 33.9315C64.571 33.9315 66.0588 34.4182 66.47 34.5392V39.084C66.2886 38.9963 64.9127 38.1798 62.8686 38.1798C60.0989 38.1798 58.1818 40.109 58.1818 42.7063C58.1818 45.3038 60.0172 47.2331 62.8686 47.2332C64.8825 47.2332 66.2825 46.4377 66.47 46.3349V50.8918C65.9318 51.043 64.4652 51.4966 62.5662 51.4966C57.7433 51.4966 53.5221 48.1796 53.5221 42.7096C53.5221 37.6448 57.3472 33.9315 62.5662 33.9315Z" fill="white"/>
<path d="M44.0155 33.9256C46.0958 33.9256 48.0583 34.4273 48.1823 34.4636V38.0791C48.0831 38.0526 46.3041 37.5692 44.8408 37.5692C43.1264 37.5692 42.195 38.1406 42.195 38.96C42.195 39.9911 43.447 40.3479 44.1516 40.5746L45.3369 40.9467C48.1126 41.8297 49.3797 43.7376 49.3797 45.7998C49.3797 50.0573 45.63 51.4936 42.3583 51.4936C40.0788 51.4936 37.9564 51.0703 37.7382 51.0309V47.1272C38.1163 47.2179 39.9092 47.7594 41.7777 47.7594C43.9004 47.7594 44.8863 47.1362 44.8863 46.1686C44.8862 45.3099 44.0426 44.8172 42.9722 44.4846C42.7152 44.3999 42.3311 44.2757 42.0559 44.1911C39.6762 43.4381 37.6927 42.035 37.6927 39.229C37.6927 36.0541 40.0634 33.9256 44.0155 33.9256Z" fill="white"/>
<path fill-rule="evenodd" clip-rule="evenodd" d="M79.9258 33.9256C85.1388 33.9256 88.8852 37.8593 88.8853 42.7034C88.8853 47.5565 85.1418 51.4907 79.9258 51.4907C74.7098 51.4907 70.9755 47.5566 70.9755 42.7034C70.9756 37.8503 74.7128 33.9256 79.9258 33.9256ZM79.9258 38.2433C77.3889 38.2433 75.5051 40.2421 75.505 42.7034C75.505 45.1647 77.3858 47.1664 79.9258 47.1664C82.4658 47.1664 84.3558 45.1768 84.3558 42.7034C84.3558 40.23 82.4688 38.2433 79.9258 38.2433Z" fill="white"/>
<path d="M143.758 48.1766L156.379 14.8453H160.422V51.2063H157.695V18.7854L145.218 51.2063H142.192L128.96 18.5314V51.2063H126.184V14.8453H130.375L143.758 48.1766Z" fill="white"/>
<path d="M242.282 35.6489L254.858 24.9478H258.544L245.054 36.411L260.207 51.2063H256.524L242.282 37.3182V51.2063H239.554V14.8453H242.282V35.6489Z" fill="white"/>
<path d="M266.626 51.2063H263.899V24.9478H266.626V51.2063Z" fill="white"/>
<path d="M206.459 24.1889C207.52 24.1889 208.579 24.3885 209.186 24.5941V27.27C208.276 27.013 207.369 26.8105 206.308 26.8105C202.471 26.8105 199.187 30.5478 199.187 36.8584V51.2034H196.459V24.9478H198.682L199.087 29.9976C200.499 26.0092 203.175 24.1889 206.459 24.1889Z" fill="white"/>
<path d="M31.9596 51.1883H27.672V34.2247H31.9596V51.1883Z" fill="white"/>
<path d="M48.1853 38.08H48.1823V38.0791C48.1836 38.0795 48.1845 38.0798 48.1853 38.08Z" fill="white"/>
<path d="M25.537 0.0408936C26.7102 0.0408936 27.6566 0.987308 27.6566 2.16049V24.6818C27.6566 25.858 26.7042 26.8105 25.537 26.8105C24.3699 26.8105 23.4115 25.8549 23.4115 24.6818V2.16049C23.4116 0.987331 24.3638 0.0409308 25.537 0.0408936Z" fill="white"/>
<path d="M72.2214 0.0408936C73.4036 0.0409723 74.3439 0.987357 74.3439 2.16049V24.6818C74.3439 25.8579 73.3824 26.8104 72.2214 26.8105C71.0603 26.8105 70.1048 25.855 70.1047 24.6818V2.16049C70.1048 0.987308 71.0391 0.0408936 72.2214 0.0408936Z" fill="white"/>
<path d="M2.18745 13.8839C3.36369 13.8839 4.31324 14.8333 4.31325 16.0035V20.4514C4.31325 21.6247 3.34556 22.571 2.18745 22.571C1.02934 22.571 0.0708008 21.6247 0.0708008 20.4514V16.0035C0.0708094 14.8333 1.0112 13.8839 2.18745 13.8839Z" fill="white"/>
<path d="M13.8712 8.03886C15.0384 8.03886 15.9879 8.9853 15.9879 10.1555V20.4514C15.9879 21.6247 15.0475 22.571 13.8712 22.571C12.695 22.571 11.7395 21.6246 11.7395 20.4514V10.1555C11.7395 8.98532 12.7041 8.03889 13.8712 8.03886Z" fill="white"/>
<path d="M37.2116 8.03886C38.3758 8.03886 39.3283 8.9853 39.3283 10.1555V20.4514C39.3283 21.6247 38.3879 22.571 37.2116 22.571C36.0355 22.571 35.0832 21.6246 35.0832 20.4514V10.1555C35.0832 8.98535 36.0476 8.03893 37.2116 8.03886Z" fill="white"/>
<path d="M48.8745 13.8839C50.0447 13.8839 50.9882 14.8333 50.9882 16.0035V20.4514C50.9882 21.6247 50.0447 22.571 48.8745 22.571C47.7043 22.5709 46.749 21.6246 46.749 20.4514V16.0035C46.749 14.8333 47.7043 13.8839 48.8745 13.8839Z" fill="white"/>
<path d="M60.5494 8.03886C61.7226 8.03886 62.669 8.9853 62.669 10.1555V20.4514C62.669 21.6247 61.7196 22.571 60.5494 22.571C59.3792 22.571 58.4328 21.6247 58.4328 20.4514V10.1555C58.4328 8.9853 59.3762 8.03886 60.5494 8.03886Z" fill="white"/>
<path d="M83.875 8.03886C85.0724 8.03893 86.0277 8.98535 86.0277 10.1555V20.4514C86.0277 21.6246 85.0361 22.5709 83.875 22.571C82.7139 22.571 81.7584 21.6247 81.7584 20.4514V10.1555C81.7584 8.9853 82.6776 8.03886 83.875 8.03886Z" fill="white"/>
<path d="M95.5588 13.8839C96.726 13.8839 97.6814 14.8333 97.6814 16.0035V20.4514C97.6814 21.6246 96.729 22.571 95.5588 22.571C94.3886 22.571 93.4422 21.6247 93.4422 20.4514V16.0035C93.4422 14.8333 94.3917 13.8839 95.5588 13.8839Z" fill="white"/>
<path d="M266.928 18.5799H263.648V14.8453H266.928V18.5799Z" fill="white"/>
</g>
<defs>
<clipPath id="clip0_1547_91804">
<rect width="267" height="52" fill="white"/>
</clipPath>
</defs>
</svg>
