<svg xmlns="http://www.w3.org/2000/svg" width="38" height="20" viewBox="0 0 38 20" fill="currentColor"><title>Cisco Logo</title><path d="M12.2742 13.1997H10.627V19.7514H12.2742V13.1997Z"></path><path d="M25.5889 15.0761C25.1642 14.8452 24.6887 14.7239 24.2056 14.7233C23.9766 14.7233 23.75 14.7685 23.5385 14.8564C23.327 14.9442 23.1348 15.073 22.9729 15.2353C22.811 15.3977 22.6826 15.5904 22.595 15.8025C22.5074 16.0146 22.4623 16.2419 22.4623 16.4715C22.4623 16.7011 22.5074 16.9284 22.595 17.1405C22.6826 17.3526 22.811 17.5453 22.9729 17.7076C23.1348 17.87 23.327 17.9988 23.5385 18.0866C23.75 18.1745 23.9766 18.2197 24.2056 18.2197C24.6881 18.2218 25.1636 18.1033 25.5889 17.8749V19.6311C25.1018 19.7818 24.5954 19.8601 24.0856 19.8636C23.1885 19.8636 22.3282 19.5062 21.6938 18.8701C21.0595 18.2339 20.7031 17.3711 20.7031 16.4715C20.7031 15.5718 21.0595 14.709 21.6938 14.0729C22.3282 13.4367 23.1885 13.0793 24.0856 13.0793C24.5956 13.08 25.1025 13.1584 25.5889 13.3119V15.0761Z"></path><path d="M8.36432 15.0761C7.94017 14.8436 7.46433 14.7222 6.98094 14.7233C6.75202 14.7233 6.52534 14.7685 6.31384 14.8564C6.10234 14.9442 5.91017 15.073 5.7483 15.2353C5.58643 15.3977 5.45802 15.5904 5.37042 15.8025C5.28281 16.0146 5.23772 16.2419 5.23772 16.4715C5.23772 16.7011 5.28281 16.9284 5.37042 17.1405C5.45802 17.3526 5.58643 17.5453 5.7483 17.7076C5.91017 17.87 6.10234 17.9988 6.31384 18.0866C6.52534 18.1745 6.75202 18.2197 6.98094 18.2197C7.46364 18.2232 7.93944 18.1046 8.36432 17.8749V19.6311C7.87732 19.7822 7.37077 19.8606 6.86099 19.8636C5.96391 19.8636 5.10356 19.5062 4.46922 18.8701C3.83488 18.2339 3.47852 17.3711 3.47852 16.4715C3.47852 15.5718 3.83488 14.709 4.46922 14.0729C5.10356 13.4367 5.96391 13.0793 6.86099 13.0793C7.37102 13.0792 7.87804 13.1577 8.36432 13.3119V15.0761Z"></path><path d="M30.7447 14.7555C30.404 14.7523 30.07 14.8507 29.7852 15.0382C29.5004 15.2257 29.2776 15.4939 29.145 15.8086C29.0124 16.1234 28.9761 16.4705 29.0406 16.806C29.1051 17.1415 29.2676 17.4502 29.5074 17.693C29.7471 17.9357 30.0534 18.1015 30.3874 18.1694C30.7213 18.2372 31.0678 18.204 31.3829 18.074C31.698 17.944 31.9674 17.723 32.157 17.4391C32.3467 17.1553 32.4479 16.8213 32.4479 16.4796C32.4522 16.2534 32.4112 16.0286 32.3273 15.8185C32.2435 15.6084 32.1184 15.4173 31.9596 15.2566C31.8008 15.0958 31.6115 14.9687 31.4028 14.8826C31.1941 14.7965 30.9703 14.7533 30.7447 14.7555ZM34.1911 16.4796C34.2038 17.1658 34.0126 17.8402 33.6417 18.417C33.2708 18.9937 32.7371 19.4467 32.1085 19.7182C31.48 19.9896 30.7851 20.0673 30.1124 19.9413C29.4397 19.8153 28.8196 19.4912 28.3312 19.0105C27.8428 18.5298 27.5081 17.9141 27.3699 17.242C27.2316 16.5698 27.2961 15.8716 27.5549 15.2363C27.8138 14.601 28.2554 14.0574 28.8235 13.6747C29.3915 13.292 30.0603 13.0876 30.7447 13.0875C31.1951 13.0756 31.6433 13.1548 32.0626 13.3202C32.4818 13.4857 32.8636 13.7341 33.1852 14.0506C33.5068 14.3671 33.7616 14.7453 33.9344 15.1626C34.1072 15.5799 34.1945 16.0278 34.1911 16.4796Z"></path><path d="M18.5263 14.6909C18.1063 14.5744 17.6743 14.5071 17.2389 14.4904C16.5752 14.4904 16.2233 14.7069 16.2233 15.0277C16.2233 15.3485 16.7031 15.565 16.975 15.6532L17.4308 15.7975C17.8564 15.8894 18.2397 16.1204 18.5204 16.4542C18.8011 16.7879 18.9635 17.2057 18.9821 17.642C18.9821 19.2859 17.5347 19.8392 16.2793 19.8392C15.6835 19.8334 15.0894 19.7743 14.5041 19.6628V18.1793C15.0111 18.3286 15.5352 18.4122 16.0634 18.4279C16.863 18.4279 17.2629 18.1873 17.2629 17.8104C17.2629 17.4335 16.935 17.2891 16.5272 17.1608L16.1753 17.0485C15.2558 16.7599 14.4961 16.2466 14.4961 15.1319C14.4961 13.905 15.4077 13.087 16.895 13.087C17.4343 13.0956 17.9708 13.1656 18.4943 13.2955L18.5263 14.6909Z"></path><path d="M1.59928 6.15874C1.59928 5.94605 1.51503 5.74208 1.36507 5.59169C1.21511 5.4413 1.01172 5.35681 0.79964 5.35681C0.587562 5.35681 0.384171 5.4413 0.234209 5.59169C0.0842476 5.74208 0 5.94605 0 6.15874L0 7.88288C0 8.09556 0.0842476 8.29953 0.234209 8.44992C0.384171 8.60031 0.587562 8.6848 0.79964 8.6848C1.01172 8.6848 1.21511 8.60031 1.36507 8.44992C1.51503 8.29953 1.59928 8.09556 1.59928 7.88288V6.15874Z"></path><path d="M6.12467 3.90532C6.12467 3.69264 6.04042 3.48866 5.89046 3.33827C5.7405 3.18788 5.53711 3.10339 5.32503 3.10339C5.11295 3.10339 4.90956 3.18788 4.7596 3.33827C4.60964 3.48866 4.52539 3.69264 4.52539 3.90532V7.91495C4.52539 8.12763 4.60964 8.3316 4.7596 8.48199C4.90956 8.63238 5.11295 8.71687 5.32503 8.71687C5.53711 8.71687 5.7405 8.63238 5.89046 8.48199C6.04042 8.3316 6.12467 8.12763 6.12467 7.91495V3.90532Z"></path><path d="M10.6208 0.801925C10.6208 0.589241 10.5365 0.385269 10.3866 0.234878C10.2366 0.0844883 10.0332 0 9.82112 0C9.60905 0 9.40565 0.0844883 9.25569 0.234878C9.10573 0.385269 9.02148 0.589241 9.02148 0.801925V9.51885C9.02148 9.73153 9.10573 9.93551 9.25569 10.0859C9.40565 10.2363 9.60905 10.3208 9.82112 10.3208C10.0332 10.3208 10.2366 10.2363 10.3866 10.0859C10.5365 9.93551 10.6208 9.73153 10.6208 9.51885V0.801925Z"></path><path d="M15.113 3.90532C15.113 3.69264 15.0287 3.48866 14.8787 3.33827C14.7288 3.18788 14.5254 3.10339 14.3133 3.10339C14.1012 3.10339 13.8978 3.18788 13.7479 3.33827C13.5979 3.48866 13.5137 3.69264 13.5137 3.90532V7.91495C13.5137 8.12763 13.5979 8.3316 13.7479 8.48199C13.8978 8.63238 14.1012 8.71687 14.3133 8.71687C14.5254 8.71687 14.7288 8.63238 14.8787 8.48199C15.0287 8.3316 15.113 8.12763 15.113 7.91495V3.90532Z"></path><path d="M19.609 6.15874C19.609 5.94605 19.5248 5.74208 19.3748 5.59169C19.2249 5.4413 19.0215 5.35681 18.8094 5.35681C18.5973 5.35681 18.3939 5.4413 18.244 5.59169C18.094 5.74208 18.0098 5.94605 18.0098 6.15874V7.88288C18.0098 8.09556 18.094 8.29953 18.244 8.44992C18.3939 8.60031 18.5973 8.6848 18.8094 8.6848C19.0215 8.6848 19.2249 8.60031 19.3748 8.44992C19.5248 8.29953 19.609 8.09556 19.609 7.88288V6.15874Z"></path><path d="M24.1012 3.90532C24.1012 3.69264 24.017 3.48866 23.867 3.33827C23.7171 3.18788 23.5137 3.10339 23.3016 3.10339C23.0895 3.10339 22.8861 3.18788 22.7362 3.33827C22.5862 3.48866 22.502 3.69264 22.502 3.90532V7.91495C22.502 8.12763 22.5862 8.3316 22.7362 8.48199C22.8861 8.63238 23.0895 8.71687 23.3016 8.71687C23.5137 8.71687 23.7171 8.63238 23.867 8.48199C24.017 8.3316 24.1012 8.12763 24.1012 7.91495V3.90532Z"></path><path d="M28.6032 0.801925C28.6032 0.589241 28.5189 0.385269 28.369 0.234878C28.219 0.0844883 28.0156 0 27.8035 0C27.5915 0 27.3881 0.0844883 27.2381 0.234878C27.0882 0.385269 27.0039 0.589241 27.0039 0.801925V9.51885C27.0039 9.73153 27.0882 9.93551 27.2381 10.0859C27.3881 10.2363 27.5915 10.3208 27.8035 10.3208C28.0156 10.3208 28.219 10.2363 28.369 10.0859C28.5189 9.93551 28.6032 9.73153 28.6032 9.51885V0.801925Z"></path><path d="M33.0965 3.9057C33.0965 3.68663 33.0097 3.47654 32.8552 3.32164C32.7008 3.16674 32.4913 3.07971 32.2728 3.07971C32.0544 3.07971 31.8449 3.16674 31.6905 3.32164C31.536 3.47654 31.4492 3.68663 31.4492 3.9057V7.91532C31.4492 8.13439 31.536 8.34448 31.6905 8.49938C31.8449 8.65428 32.0544 8.7413 32.2728 8.7413C32.4913 8.7413 32.7008 8.65428 32.8552 8.49938C33.0097 8.34448 33.0965 8.13439 33.0965 7.91532V3.9057Z"></path><path d="M37.5837 6.15874C37.5837 5.94605 37.4994 5.74208 37.3495 5.59169C37.1995 5.4413 36.9961 5.35681 36.784 5.35681C36.5719 5.35681 36.3685 5.4413 36.2186 5.59169C36.0686 5.74208 35.9844 5.94605 35.9844 6.15874V7.88288C35.9844 8.09556 36.0686 8.29953 36.2186 8.44992C36.3685 8.60031 36.5719 8.6848 36.784 8.6848C36.9961 8.6848 37.1995 8.60031 37.3495 8.44992C37.4994 8.29953 37.5837 8.09556 37.5837 7.88288V6.15874Z"></path></svg>